<mxfile host="drawio-plugin" modified="2021-06-27T17:16:21.855Z" agent="5.0 (Macintosh; Intel Mac OS X 11_2_2) AppleWebKit/537.36 (KHTML, like Gecko) Chrome/87.0.4280.141 Safari/537.36" etag="MPvBAgWpNWUn9PzR1UKY" version="14.7.4" type="embed" pages="3"><diagram id="j_Zm7HBpTUpw5oYf5dMK" name="Page-1"><mxGraphModel dx="475" dy="603" grid="1" gridSize="10" guides="1" tooltips="1" connect="1" arrows="1" fold="1" page="1" pageScale="1" pageWidth="827" pageHeight="1169" math="0" shadow="0"><root><mxCell id="0"/><mxCell id="1" parent="0"/><mxCell id="ROiu5C3z8hkfiZbsSkI3-26" style="edgeStyle=orthogonalEdgeStyle;rounded=1;orthogonalLoop=1;jettySize=auto;html=1;entryX=1;entryY=0.5;entryDx=0;entryDy=0;" parent="1" source="ROiu5C3z8hkfiZbsSkI3-1" target="ROiu5C3z8hkfiZbsSkI3-2" edge="1"><mxGeometry relative="1" as="geometry"><Array as="points"><mxPoint x="290" y="280"/></Array></mxGeometry></mxCell><mxCell id="ROiu5C3z8hkfiZbsSkI3-1" value="&lt;h2&gt;PAD&lt;/h2&gt;" style="whiteSpace=wrap;html=1;rounded=1;" parent="1" vertex="1"><mxGeometry x="230" y="125" width="120" height="60" as="geometry"/></mxCell><mxCell id="ROiu5C3z8hkfiZbsSkI3-28" value="" style="edgeStyle=orthogonalEdgeStyle;rounded=1;orthogonalLoop=1;jettySize=auto;html=1;" parent="1" source="ROiu5C3z8hkfiZbsSkI3-2" target="ROiu5C3z8hkfiZbsSkI3-5" edge="1"><mxGeometry relative="1" as="geometry"/></mxCell><mxCell id="ROiu5C3z8hkfiZbsSkI3-2" value="&lt;h2&gt;CLIP&lt;/h2&gt;" style="whiteSpace=wrap;html=1;rounded=1;" parent="1" vertex="1"><mxGeometry x="60" y="250" width="120" height="60" as="geometry"/></mxCell><mxCell id="ROiu5C3z8hkfiZbsSkI3-34" value="" style="edgeStyle=orthogonalEdgeStyle;rounded=1;orthogonalLoop=1;jettySize=auto;html=1;" parent="1" source="ROiu5C3z8hkfiZbsSkI3-3" target="ROiu5C3z8hkfiZbsSkI3-30" edge="1"><mxGeometry relative="1" as="geometry"/></mxCell><mxCell id="ROiu5C3z8hkfiZbsSkI3-3" value="X_train&amp;nbsp;&lt;br&gt;(669, 61, 22050)" style="whiteSpace=wrap;html=1;rounded=1;" parent="1" vertex="1"><mxGeometry x="250" y="530" width="120" height="60" as="geometry"/></mxCell><mxCell id="ROiu5C3z8hkfiZbsSkI3-22" style="edgeStyle=orthogonalEdgeStyle;rounded=1;orthogonalLoop=1;jettySize=auto;html=1;" parent="1" source="ROiu5C3z8hkfiZbsSkI3-4" target="ROiu5C3z8hkfiZbsSkI3-19" edge="1"><mxGeometry relative="1" as="geometry"><Array as="points"><mxPoint x="200" y="460"/><mxPoint x="200" y="435"/></Array></mxGeometry></mxCell><mxCell id="ROiu5C3z8hkfiZbsSkI3-32" style="edgeStyle=orthogonalEdgeStyle;rounded=1;orthogonalLoop=1;jettySize=auto;html=1;entryX=0;entryY=0.5;entryDx=0;entryDy=0;" parent="1" target="ROiu5C3z8hkfiZbsSkI3-3" edge="1"><mxGeometry relative="1" as="geometry"><mxPoint x="120" y="530" as="sourcePoint"/><Array as="points"><mxPoint x="120" y="560"/></Array></mxGeometry></mxCell><mxCell id="ROiu5C3z8hkfiZbsSkI3-33" style="edgeStyle=orthogonalEdgeStyle;rounded=1;orthogonalLoop=1;jettySize=auto;html=1;entryX=0;entryY=0.5;entryDx=0;entryDy=0;exitX=0.5;exitY=1;exitDx=0;exitDy=0;" parent="1" source="ROiu5C3z8hkfiZbsSkI3-4" target="ROiu5C3z8hkfiZbsSkI3-31" edge="1"><mxGeometry relative="1" as="geometry"><mxPoint x="120" y="530" as="sourcePoint"/><Array as="points"><mxPoint x="120" y="670"/></Array></mxGeometry></mxCell><mxCell id="ROiu5C3z8hkfiZbsSkI3-4" value="&lt;h2&gt;&lt;span style=&quot;font-weight: 400&quot;&gt;&lt;font style=&quot;font-size: 19px&quot;&gt;X&amp;nbsp;&lt;/font&gt;&lt;/span&gt;&lt;br style=&quot;font-size: 12px ; font-weight: 400&quot;&gt;&lt;span style=&quot;font-size: 12px ; font-weight: 400&quot;&gt;(744, 61, 22050)&lt;/span&gt;&lt;br&gt;&lt;/h2&gt;" style="whiteSpace=wrap;html=1;rounded=1;" parent="1" vertex="1"><mxGeometry x="60" y="430" width="120" height="60" as="geometry"/></mxCell><mxCell id="ROiu5C3z8hkfiZbsSkI3-17" value="" style="edgeStyle=orthogonalEdgeStyle;rounded=1;orthogonalLoop=1;jettySize=auto;html=1;" parent="1" source="ROiu5C3z8hkfiZbsSkI3-5" target="ROiu5C3z8hkfiZbsSkI3-4" edge="1"><mxGeometry relative="1" as="geometry"/></mxCell><mxCell id="ROiu5C3z8hkfiZbsSkI3-5" value="&lt;h2&gt;TRIM&lt;/h2&gt;" style="whiteSpace=wrap;html=1;rounded=1;" parent="1" vertex="1"><mxGeometry x="60" y="340" width="120" height="60" as="geometry"/></mxCell><mxCell id="ROiu5C3z8hkfiZbsSkI3-6" value="&lt;h3 style=&quot;font-size: 13px&quot;&gt;&lt;font style=&quot;font-size: 13px&quot; color=&quot;#004876&quot;&gt;Raw audio .wav&amp;nbsp;&lt;/font&gt;&lt;/h3&gt;&lt;h3 style=&quot;font-size: 13px&quot;&gt;&lt;font style=&quot;font-size: 13px&quot; color=&quot;#004876&quot;&gt;44100Hz&lt;/font&gt;&lt;/h3&gt;" style="text;html=1;align=center;verticalAlign=middle;whiteSpace=wrap;rounded=1;flipH=1;flipV=1;" parent="1" vertex="1"><mxGeometry x="50" y="20" width="140" height="70" as="geometry"/></mxCell><mxCell id="ROiu5C3z8hkfiZbsSkI3-7" value="" style="endArrow=classic;html=1;entryX=0.5;entryY=0;entryDx=0;entryDy=0;" parent="1" source="ROiu5C3z8hkfiZbsSkI3-6" target="ROiu5C3z8hkfiZbsSkI3-10" edge="1"><mxGeometry width="50" height="50" relative="1" as="geometry"><mxPoint x="100" y="405" as="sourcePoint"/><mxPoint x="160" y="390" as="targetPoint"/><Array as="points"/></mxGeometry></mxCell><mxCell id="ROiu5C3z8hkfiZbsSkI3-24" value="" style="edgeStyle=orthogonalEdgeStyle;rounded=1;orthogonalLoop=1;jettySize=auto;html=1;" parent="1" source="ROiu5C3z8hkfiZbsSkI3-10" target="ROiu5C3z8hkfiZbsSkI3-1" edge="1"><mxGeometry relative="1" as="geometry"/></mxCell><mxCell id="ROiu5C3z8hkfiZbsSkI3-25" style="edgeStyle=orthogonalEdgeStyle;rounded=1;orthogonalLoop=1;jettySize=auto;html=1;entryX=0.5;entryY=0;entryDx=0;entryDy=0;" parent="1" source="ROiu5C3z8hkfiZbsSkI3-10" target="ROiu5C3z8hkfiZbsSkI3-2" edge="1"><mxGeometry relative="1" as="geometry"/></mxCell><mxCell id="ROiu5C3z8hkfiZbsSkI3-10" value="Need padding?" style="rhombus;whiteSpace=wrap;html=1;rounded=1;" parent="1" vertex="1"><mxGeometry x="45" y="110" width="150" height="90" as="geometry"/></mxCell><mxCell id="ROiu5C3z8hkfiZbsSkI3-14" value="Yes" style="text;html=1;align=center;verticalAlign=middle;resizable=0;points=[];autosize=1;strokeColor=none;rounded=1;" parent="1" vertex="1"><mxGeometry x="190" y="130" width="40" height="20" as="geometry"/></mxCell><mxCell id="ROiu5C3z8hkfiZbsSkI3-16" value="No" style="text;html=1;align=center;verticalAlign=middle;resizable=0;points=[];autosize=1;strokeColor=none;rounded=1;" parent="1" vertex="1"><mxGeometry x="130" y="200" width="30" height="20" as="geometry"/></mxCell><mxCell id="ROiu5C3z8hkfiZbsSkI3-19" value="&lt;font face=&quot;Tahoma&quot;&gt;X = { ndarray: ( 744, 61, 22050 ) }&lt;br&gt;&lt;/font&gt;Y =&amp;nbsp; { ndarray: ( 744, 61 ) }" style="shape=note;whiteSpace=wrap;html=1;backgroundOutline=1;darkOpacity=0.05;rounded=1;align=left;" parent="1" vertex="1"><mxGeometry x="270" y="400" width="220" height="70" as="geometry"/></mxCell><mxCell id="ROiu5C3z8hkfiZbsSkI3-29" value="Y_test&lt;br&gt;(75, 61)" style="whiteSpace=wrap;html=1;rounded=1;" parent="1" vertex="1"><mxGeometry x="400" y="640" width="120" height="60" as="geometry"/></mxCell><mxCell id="ROiu5C3z8hkfiZbsSkI3-30" value="Y_train&lt;br&gt;(669, 61)" style="whiteSpace=wrap;html=1;rounded=1;" parent="1" vertex="1"><mxGeometry x="400" y="530" width="120" height="60" as="geometry"/></mxCell><mxCell id="ROiu5C3z8hkfiZbsSkI3-35" value="" style="edgeStyle=orthogonalEdgeStyle;rounded=1;orthogonalLoop=1;jettySize=auto;html=1;" parent="1" source="ROiu5C3z8hkfiZbsSkI3-31" target="ROiu5C3z8hkfiZbsSkI3-29" edge="1"><mxGeometry relative="1" as="geometry"/></mxCell><mxCell id="ROiu5C3z8hkfiZbsSkI3-31" value="X_test&lt;br&gt;(75, 61, 22050)" style="whiteSpace=wrap;html=1;rounded=1;" parent="1" vertex="1"><mxGeometry x="250" y="640" width="120" height="60" as="geometry"/></mxCell><mxCell id="ROiu5C3z8hkfiZbsSkI3-36" value="make_splits()" style="text;html=1;align=center;verticalAlign=middle;resizable=0;points=[];autosize=1;strokeColor=none;" parent="1" vertex="1"><mxGeometry x="120" y="605" width="90" height="20" as="geometry"/></mxCell><mxCell id="ROiu5C3z8hkfiZbsSkI3-37" value="class DatasetMusic2emotion" style="swimlane;fontStyle=1;align=center;verticalAlign=middle;childLayout=stackLayout;horizontal=1;startSize=30;horizontalStack=0;resizeParent=1;resizeParentMax=0;resizeLast=0;collapsible=0;marginBottom=0;html=1;rounded=1;" parent="1" vertex="1"><mxGeometry x="530" y="40" width="260" height="300" as="geometry"/></mxCell><mxCell id="ROiu5C3z8hkfiZbsSkI3-38" value="&lt;font color=&quot;#f5f5f5&quot;&gt;+ splits_done&lt;br&gt;+ music_data_root&lt;br&gt;+ X, Y&lt;br&gt;+ train_fraction&lt;br&gt;+ X_train, Y_train&lt;br&gt;+ X_Test, Y_test&lt;br&gt;+ train_test_indexes&lt;br&gt;+ song_ids&lt;br&gt;&lt;/font&gt;" style="text;html=1;strokeColor=none;fillColor=none;align=left;verticalAlign=middle;spacingLeft=4;spacingRight=4;overflow=hidden;rotatable=0;points=[[0,0.5],[1,0.5]];portConstraint=eastwest;" parent="ROiu5C3z8hkfiZbsSkI3-37" vertex="1"><mxGeometry y="30" width="260" height="180" as="geometry"/></mxCell><mxCell id="ROiu5C3z8hkfiZbsSkI3-39" value="&lt;font color=&quot;#ffffff&quot;&gt;+ print( splits_done, paths_info )&lt;br&gt;+ __init__( data_root, train_frac )&lt;br&gt;+ extract_labels( )&lt;br&gt;+ make_splits( )&lt;br&gt;+ generate_splits_indexes( train_len, test_len )&lt;br&gt;&lt;br&gt;&lt;/font&gt;" style="text;html=1;strokeColor=none;fillColor=none;align=left;verticalAlign=middle;spacingLeft=4;spacingRight=4;overflow=hidden;rotatable=0;points=[[0,0.5],[1,0.5]];portConstraint=eastwest;" parent="ROiu5C3z8hkfiZbsSkI3-37" vertex="1"><mxGeometry y="210" width="260" height="90" as="geometry"/></mxCell></root></mxGraphModel></diagram><diagram id="kBmfyL-vB7n3c5rlJnqk" name="Page-2">&#xa;    <mxGraphModel dx="1892" dy="951" grid="1" gridSize="10" guides="1" tooltips="1" connect="1" arrows="1" fold="1" page="1" pageScale="1" pageWidth="827" pageHeight="1169" background="#114B5F" math="0" shadow="0">&#xa;      <root>&#xa;        <mxCell id="4wBKeT0SJrs_P1duhk-n-0"/>&#xa;        <mxCell id="4wBKeT0SJrs_P1duhk-n-1" parent="4wBKeT0SJrs_P1duhk-n-0"/>&#xa;        <mxCell id="4wBKeT0SJrs_P1duhk-n-6" value="" style="edgeStyle=orthogonalEdgeStyle;curved=0;rounded=1;sketch=0;orthogonalLoop=1;jettySize=auto;html=1;fontColor=#E4FDE1;strokeColor=#028090;fillColor=#F45B69;" parent="4wBKeT0SJrs_P1duhk-n-1" target="4wBKeT0SJrs_P1duhk-n-4" edge="1">&#xa;          <mxGeometry relative="1" as="geometry">&#xa;            <mxPoint x="420" y="100" as="sourcePoint"/>&#xa;          </mxGeometry>&#xa;        </mxCell>&#xa;        <mxCell id="4wBKeT0SJrs_P1duhk-n-7" style="edgeStyle=orthogonalEdgeStyle;curved=0;rounded=1;sketch=0;orthogonalLoop=1;jettySize=auto;html=1;entryX=0.5;entryY=0;entryDx=0;entryDy=0;fontColor=#E4FDE1;strokeColor=#028090;fillColor=#F45B69;exitX=0.16;exitY=0.55;exitDx=0;exitDy=0;exitPerimeter=0;" parent="4wBKeT0SJrs_P1duhk-n-1" source="4wBKeT0SJrs_P1duhk-n-20" edge="1">&#xa;          <mxGeometry relative="1" as="geometry">&#xa;            <mxPoint x="360" y="70" as="sourcePoint"/>&#xa;            <mxPoint x="180" y="160" as="targetPoint"/>&#xa;          </mxGeometry>&#xa;        </mxCell>&#xa;        <mxCell id="4wBKeT0SJrs_P1duhk-n-8" style="edgeStyle=orthogonalEdgeStyle;curved=0;rounded=1;sketch=0;orthogonalLoop=1;jettySize=auto;html=1;entryX=0.5;entryY=0;entryDx=0;entryDy=0;fontColor=#E4FDE1;strokeColor=#028090;fillColor=#F45B69;exitX=0.875;exitY=0.5;exitDx=0;exitDy=0;exitPerimeter=0;" parent="4wBKeT0SJrs_P1duhk-n-1" source="4wBKeT0SJrs_P1duhk-n-20" target="4wBKeT0SJrs_P1duhk-n-5" edge="1">&#xa;          <mxGeometry relative="1" as="geometry">&#xa;            <mxPoint x="480" y="70" as="sourcePoint"/>&#xa;          </mxGeometry>&#xa;        </mxCell>&#xa;        <mxCell id="4wBKeT0SJrs_P1duhk-n-4" value="imageSide_root_data&lt;span style=&quot;color: rgba(0 , 0 , 0 , 0) ; font-family: monospace ; font-size: 0px&quot;&gt;%3CmxGraphModel%3E%3Croot%3E%3CmxCell%20id%3D%220%22%2F%3E%3CmxCell%20id%3D%221%22%20parent%3D%220%22%2F%3E%3CmxCell%20id%3D%222%22%20value%3D%22%22%20style%3D%22rounded%3D1%3BwhiteSpace%3Dwrap%3Bhtml%3D1%3Bsketch%3D0%3BfontColor%3D%23E4FDE1%3BstrokeColor%3D%23028090%3BfillColor%3D%23F45B69%3B%22%20vertex%3D%221%22%20parent%3D%221%22%3E%3CmxGeometry%20x%3D%2290%22%20y%3D%22230%22%20width%3D%22120%22%20height%3D%2260%22%20as%3D%22geometry%22%2F%3E%3C%2FmxCell%3E%3C%2Froot%3E%3C%2FmxGraphModel%3E&lt;/span&gt;" style="rounded=1;whiteSpace=wrap;html=1;sketch=0;fontColor=#E4FDE1;strokeColor=#028090;fillColor=#F45B69;" parent="4wBKeT0SJrs_P1duhk-n-1" vertex="1">&#xa;          <mxGeometry x="360" y="160" width="120" height="60" as="geometry"/>&#xa;        </mxCell>&#xa;        <mxCell id="4wBKeT0SJrs_P1duhk-n-5" value="musicSide_root_data" style="rounded=1;whiteSpace=wrap;html=1;sketch=0;fontColor=#E4FDE1;strokeColor=#028090;fillColor=#F45B69;" parent="4wBKeT0SJrs_P1duhk-n-1" vertex="1">&#xa;          <mxGeometry x="600" y="160" width="120" height="60" as="geometry"/>&#xa;        </mxCell>&#xa;        <mxCell id="4wBKeT0SJrs_P1duhk-n-11" value="code_root" style="swimlane;rounded=0;sketch=0;fontColor=#E4FDE1;strokeColor=#028090;fillColor=#F45B69;" parent="4wBKeT0SJrs_P1duhk-n-1" vertex="1">&#xa;          <mxGeometry x="80" y="160" width="200" height="200" as="geometry">&#xa;            <mxRectangle x="80" y="160" width="90" height="23" as="alternateBounds"/>&#xa;          </mxGeometry>&#xa;        </mxCell>&#xa;        <mxCell id="4wBKeT0SJrs_P1duhk-n-9" value="imageSide" style="rounded=1;whiteSpace=wrap;html=1;sketch=0;fontColor=#E4FDE1;strokeColor=#028090;fillColor=#F45B69;" parent="4wBKeT0SJrs_P1duhk-n-11" vertex="1">&#xa;          <mxGeometry x="40" y="90" width="120" height="30" as="geometry"/>&#xa;        </mxCell>&#xa;        <mxCell id="4wBKeT0SJrs_P1duhk-n-10" value="musicSide" style="rounded=1;whiteSpace=wrap;html=1;sketch=0;fontColor=#E4FDE1;strokeColor=#028090;fillColor=#F45B69;" parent="4wBKeT0SJrs_P1duhk-n-11" vertex="1">&#xa;          <mxGeometry x="40" y="140" width="120" height="30" as="geometry"/>&#xa;        </mxCell>&#xa;        <mxCell id="4wBKeT0SJrs_P1duhk-n-21" value="main.py" style="whiteSpace=wrap;html=1;rounded=0;sketch=0;fontColor=#E4FDE1;strokeColor=#028090;fillColor=#F45B69;" parent="4wBKeT0SJrs_P1duhk-n-11" vertex="1">&#xa;          <mxGeometry x="50" y="40" width="100" height="30" as="geometry"/>&#xa;        </mxCell>&#xa;        <mxCell id="4wBKeT0SJrs_P1duhk-n-20" value="repo_root" style="ellipse;shape=cloud;whiteSpace=wrap;html=1;rounded=0;sketch=0;fontColor=#E4FDE1;strokeColor=#028090;fillColor=#F45B69;" parent="4wBKeT0SJrs_P1duhk-n-1" vertex="1">&#xa;          <mxGeometry x="360" y="30" width="120" height="80" as="geometry"/>&#xa;        </mxCell>&#xa;        <mxCell id="4wBKeT0SJrs_P1duhk-n-23" value="musicSide" style="swimlane;rounded=0;sketch=0;fontColor=#E4FDE1;strokeColor=#028090;fillColor=#F45B69;" parent="4wBKeT0SJrs_P1duhk-n-1" vertex="1">&#xa;          <mxGeometry x="80" y="390" width="200" height="90" as="geometry">&#xa;            <mxRectangle x="80" y="390" width="90" height="23" as="alternateBounds"/>&#xa;          </mxGeometry>&#xa;        </mxCell>&#xa;        <mxCell id="4wBKeT0SJrs_P1duhk-n-24" value="DatasetMusic2emotion" style="rounded=1;whiteSpace=wrap;html=1;sketch=0;fontColor=#E4FDE1;strokeColor=#028090;fillColor=#F45B69;" parent="4wBKeT0SJrs_P1duhk-n-23" vertex="1">&#xa;          <mxGeometry x="30" y="40" width="140" height="30" as="geometry"/>&#xa;        </mxCell>&#xa;        <mxCell id="4wBKeT0SJrs_P1duhk-n-27" style="edgeStyle=orthogonalEdgeStyle;curved=0;rounded=1;sketch=0;orthogonalLoop=1;jettySize=auto;html=1;entryX=0.5;entryY=0;entryDx=0;entryDy=0;fontColor=#E4FDE1;strokeColor=#028090;fillColor=#F45B69;" parent="4wBKeT0SJrs_P1duhk-n-1" source="4wBKeT0SJrs_P1duhk-n-10" target="4wBKeT0SJrs_P1duhk-n-23" edge="1">&#xa;          <mxGeometry relative="1" as="geometry"/>&#xa;        </mxCell>&#xa;        <mxCell id="4wBKeT0SJrs_P1duhk-n-29" value="DatasetMusic2emotion" style="swimlane;rounded=0;sketch=0;fontColor=#E4FDE1;strokeColor=#028090;fillColor=#F45B69;" parent="4wBKeT0SJrs_P1duhk-n-1" vertex="1">&#xa;          <mxGeometry x="80" y="510" width="200" height="200" as="geometry">&#xa;            <mxRectangle x="80" y="510" width="90" height="23" as="alternateBounds"/>&#xa;          </mxGeometry>&#xa;        </mxCell>&#xa;        <mxCell id="4wBKeT0SJrs_P1duhk-n-30" value="tools" style="rounded=1;whiteSpace=wrap;html=1;sketch=0;fontColor=#E4FDE1;strokeColor=#028090;fillColor=#F45B69;" parent="4wBKeT0SJrs_P1duhk-n-29" vertex="1">&#xa;          <mxGeometry x="40" y="130" width="120" height="30" as="geometry"/>&#xa;        </mxCell>&#xa;        <mxCell id="4wBKeT0SJrs_P1duhk-n-32" value="DatasetMusic2emotion.py" style="whiteSpace=wrap;html=1;rounded=0;sketch=0;fontColor=#E4FDE1;strokeColor=#028090;fillColor=#F45B69;" parent="4wBKeT0SJrs_P1duhk-n-29" vertex="1">&#xa;          <mxGeometry x="22.5" y="75" width="155" height="30" as="geometry"/>&#xa;        </mxCell>&#xa;        <mxCell id="4wBKeT0SJrs_P1duhk-n-34" value="__init__.py" style="whiteSpace=wrap;html=1;rounded=0;sketch=0;fontColor=#E4FDE1;strokeColor=#028090;fillColor=#F45B69;" parent="4wBKeT0SJrs_P1duhk-n-29" vertex="1">&#xa;          <mxGeometry x="62.5" y="40" width="75" height="20" as="geometry"/>&#xa;        </mxCell>&#xa;        <mxCell id="4wBKeT0SJrs_P1duhk-n-33" style="edgeStyle=orthogonalEdgeStyle;curved=0;rounded=1;sketch=0;orthogonalLoop=1;jettySize=auto;html=1;entryX=0.5;entryY=0;entryDx=0;entryDy=0;fontColor=#E4FDE1;strokeColor=#028090;fillColor=#F45B69;" parent="4wBKeT0SJrs_P1duhk-n-1" source="4wBKeT0SJrs_P1duhk-n-24" target="4wBKeT0SJrs_P1duhk-n-29" edge="1">&#xa;          <mxGeometry relative="1" as="geometry"/>&#xa;        </mxCell>&#xa;        <mxCell id="4wBKeT0SJrs_P1duhk-n-35" value="tools" style="swimlane;rounded=0;sketch=0;fontColor=#E4FDE1;strokeColor=#028090;fillColor=#F45B69;startSize=30;" parent="4wBKeT0SJrs_P1duhk-n-1" vertex="1">&#xa;          <mxGeometry x="80" y="740" width="200" height="200" as="geometry">&#xa;            <mxRectangle x="80" y="740" width="90" height="23" as="alternateBounds"/>&#xa;          </mxGeometry>&#xa;        </mxCell>&#xa;        <mxCell id="4wBKeT0SJrs_P1duhk-n-37" value="music_VA-3D_visualizer.py" style="whiteSpace=wrap;html=1;rounded=0;sketch=0;fontColor=#E4FDE1;strokeColor=#028090;fillColor=#F45B69;" parent="4wBKeT0SJrs_P1duhk-n-35" vertex="1">&#xa;          <mxGeometry x="22.5" y="70" width="155" height="30" as="geometry"/>&#xa;        </mxCell>&#xa;        <mxCell id="4wBKeT0SJrs_P1duhk-n-38" value="__init__.py" style="whiteSpace=wrap;html=1;rounded=0;sketch=0;fontColor=#E4FDE1;strokeColor=#028090;fillColor=#F45B69;" parent="4wBKeT0SJrs_P1duhk-n-35" vertex="1">&#xa;          <mxGeometry x="62.5" y="40" width="75" height="20" as="geometry"/>&#xa;        </mxCell>&#xa;        <mxCell id="4wBKeT0SJrs_P1duhk-n-41" value="utils.py" style="whiteSpace=wrap;html=1;rounded=0;sketch=0;fontColor=#E4FDE1;strokeColor=#028090;fillColor=#F45B69;" parent="4wBKeT0SJrs_P1duhk-n-35" vertex="1">&#xa;          <mxGeometry x="22.5" y="150" width="155" height="30" as="geometry"/>&#xa;        </mxCell>&#xa;        <mxCell id="4wBKeT0SJrs_P1duhk-n-40" value="va2emotion.py" style="whiteSpace=wrap;html=1;rounded=0;sketch=0;fontColor=#E4FDE1;strokeColor=#028090;fillColor=#F45B69;" parent="4wBKeT0SJrs_P1duhk-n-35" vertex="1">&#xa;          <mxGeometry x="22.5" y="110" width="155" height="30" as="geometry"/>&#xa;        </mxCell>&#xa;        <mxCell id="4wBKeT0SJrs_P1duhk-n-39" style="edgeStyle=orthogonalEdgeStyle;curved=0;rounded=1;sketch=0;orthogonalLoop=1;jettySize=auto;html=1;entryX=0.5;entryY=0;entryDx=0;entryDy=0;fontColor=#E4FDE1;strokeColor=#028090;fillColor=#F45B69;" parent="4wBKeT0SJrs_P1duhk-n-1" source="4wBKeT0SJrs_P1duhk-n-30" target="4wBKeT0SJrs_P1duhk-n-35" edge="1">&#xa;          <mxGeometry relative="1" as="geometry"/>&#xa;        </mxCell>&#xa;      </root>&#xa;    </mxGraphModel>&#xa;  </diagram><diagram id="hOE7fDvmgZJRPRHcMCma" name="Page-3">&#xa;    <mxGraphModel dx="1261" dy="634" grid="1" gridSize="10" guides="1" tooltips="1" connect="1" arrows="1" fold="1" page="1" pageScale="1" pageWidth="827" pageHeight="1169" math="0" shadow="0">&#xa;      <root>&#xa;        <mxCell id="iQTJ02s8c4TCMyYku8S7-0"/>&#xa;        <mxCell id="iQTJ02s8c4TCMyYku8S7-1" parent="iQTJ02s8c4TCMyYku8S7-0"/>&#xa;        <mxCell id="MLjrmf0wfuBN1nM6w7Js-27" value="" style="edgeStyle=orthogonalEdgeStyle;curved=0;rounded=1;sketch=0;orthogonalLoop=1;jettySize=auto;html=1;" edge="1" parent="iQTJ02s8c4TCMyYku8S7-1" source="MLjrmf0wfuBN1nM6w7Js-1" target="MLjrmf0wfuBN1nM6w7Js-26">&#xa;          <mxGeometry relative="1" as="geometry"/>&#xa;        </mxCell>&#xa;        <mxCell id="MLjrmf0wfuBN1nM6w7Js-1" value="&lt;h2&gt;conv1D&lt;/h2&gt;" style="whiteSpace=wrap;html=1;rounded=1;" vertex="1" parent="iQTJ02s8c4TCMyYku8S7-1">&#xa;          <mxGeometry x="240" y="25" width="100" height="60" as="geometry"/>&#xa;        </mxCell>&#xa;        <mxCell id="MLjrmf0wfuBN1nM6w7Js-25" value="" style="edgeStyle=orthogonalEdgeStyle;curved=0;rounded=1;sketch=0;orthogonalLoop=1;jettySize=auto;html=1;" edge="1" parent="iQTJ02s8c4TCMyYku8S7-1" source="MLjrmf0wfuBN1nM6w7Js-12" target="MLjrmf0wfuBN1nM6w7Js-1">&#xa;          <mxGeometry relative="1" as="geometry"/>&#xa;        </mxCell>&#xa;        <mxCell id="MLjrmf0wfuBN1nM6w7Js-12" value="&lt;h3 style=&quot;font-size: 13px&quot;&gt;&lt;font color=&quot;#004876&quot;&gt;Raw audio segment of 500ms with shape (1, 22050)&lt;/font&gt;&lt;/h3&gt;" style="text;html=1;align=center;verticalAlign=middle;whiteSpace=wrap;rounded=1;flipH=1;flipV=1;" vertex="1" parent="iQTJ02s8c4TCMyYku8S7-1">&#xa;          <mxGeometry x="50" y="20" width="140" height="70" as="geometry"/>&#xa;        </mxCell>&#xa;        <mxCell id="MLjrmf0wfuBN1nM6w7Js-29" value="" style="edgeStyle=orthogonalEdgeStyle;curved=0;rounded=1;sketch=0;orthogonalLoop=1;jettySize=auto;html=1;" edge="1" parent="iQTJ02s8c4TCMyYku8S7-1" source="MLjrmf0wfuBN1nM6w7Js-26" target="MLjrmf0wfuBN1nM6w7Js-28">&#xa;          <mxGeometry relative="1" as="geometry"/>&#xa;        </mxCell>&#xa;        <mxCell id="MLjrmf0wfuBN1nM6w7Js-26" value="&lt;h2&gt;BN&lt;/h2&gt;" style="whiteSpace=wrap;html=1;rounded=1;" vertex="1" parent="iQTJ02s8c4TCMyYku8S7-1">&#xa;          <mxGeometry x="364" y="25" width="50" height="60" as="geometry"/>&#xa;        </mxCell>&#xa;        <mxCell id="MLjrmf0wfuBN1nM6w7Js-31" value="" style="edgeStyle=orthogonalEdgeStyle;curved=0;rounded=1;sketch=0;orthogonalLoop=1;jettySize=auto;html=1;" edge="1" parent="iQTJ02s8c4TCMyYku8S7-1" source="MLjrmf0wfuBN1nM6w7Js-28" target="MLjrmf0wfuBN1nM6w7Js-30">&#xa;          <mxGeometry relative="1" as="geometry"/>&#xa;        </mxCell>&#xa;        <mxCell id="MLjrmf0wfuBN1nM6w7Js-28" value="&lt;h2&gt;Dropout&lt;/h2&gt;" style="whiteSpace=wrap;html=1;rounded=1;" vertex="1" parent="iQTJ02s8c4TCMyYku8S7-1">&#xa;          <mxGeometry x="440" y="25" width="90" height="60" as="geometry"/>&#xa;        </mxCell>&#xa;        <mxCell id="MLjrmf0wfuBN1nM6w7Js-33" value="" style="edgeStyle=orthogonalEdgeStyle;curved=0;rounded=1;sketch=0;orthogonalLoop=1;jettySize=auto;html=1;" edge="1" parent="iQTJ02s8c4TCMyYku8S7-1" source="MLjrmf0wfuBN1nM6w7Js-30" target="MLjrmf0wfuBN1nM6w7Js-32">&#xa;          <mxGeometry relative="1" as="geometry"/>&#xa;        </mxCell>&#xa;        <mxCell id="MLjrmf0wfuBN1nM6w7Js-30" value="&lt;h2&gt;Flatten&lt;/h2&gt;" style="whiteSpace=wrap;html=1;rounded=1;" vertex="1" parent="iQTJ02s8c4TCMyYku8S7-1">&#xa;          <mxGeometry x="560" y="25" width="80" height="60" as="geometry"/>&#xa;        </mxCell>&#xa;        <mxCell id="MLjrmf0wfuBN1nM6w7Js-35" value="" style="edgeStyle=orthogonalEdgeStyle;curved=0;rounded=1;sketch=0;orthogonalLoop=1;jettySize=auto;html=1;" edge="1" parent="iQTJ02s8c4TCMyYku8S7-1" source="MLjrmf0wfuBN1nM6w7Js-32" target="MLjrmf0wfuBN1nM6w7Js-34">&#xa;          <mxGeometry relative="1" as="geometry"/>&#xa;        </mxCell>&#xa;        <mxCell id="MLjrmf0wfuBN1nM6w7Js-32" value="&lt;h2&gt;Dense&lt;/h2&gt;" style="whiteSpace=wrap;html=1;rounded=1;" vertex="1" parent="iQTJ02s8c4TCMyYku8S7-1">&#xa;          <mxGeometry x="660" y="25" width="80" height="60" as="geometry"/>&#xa;        </mxCell>&#xa;        <mxCell id="MLjrmf0wfuBN1nM6w7Js-34" value="output" style="whiteSpace=wrap;html=1;rounded=1;" vertex="1" parent="iQTJ02s8c4TCMyYku8S7-1">&#xa;          <mxGeometry x="820" y="25" width="80" height="60" as="geometry"/>&#xa;        </mxCell>&#xa;        <mxCell id="MLjrmf0wfuBN1nM6w7Js-36" value="softmax" style="text;html=1;align=center;verticalAlign=middle;resizable=0;points=[];autosize=1;strokeColor=none;" vertex="1" parent="iQTJ02s8c4TCMyYku8S7-1">&#xa;          <mxGeometry x="750" y="30" width="60" height="20" as="geometry"/>&#xa;        </mxCell>&#xa;      </root>&#xa;    </mxGraphModel>&#xa;  </diagram></mxfile>